HIERARCHY
ROOT hips
{
    OFFSET 0 0 0
    CHANNELS 6 Xposition Yposition Zposition Zrotation Xrotation Yrotation
    JOINT spine
    {
        OFFSET -2.04891e-06 11.8934 0.353977
        CHANNELS 3 Zrotation Xrotation Yrotation
        JOINT spine1
        {
            OFFSET -1.30385e-06 18.6411 -1.28445
            CHANNELS 3 Zrotation Xrotation Yrotation
            JOINT spine2
            {
                OFFSET 0.00375062 12.8712 -1.94827
                CHANNELS 3 Zrotation Xrotation Yrotation
                JOINT neck
                {
                    OFFSET 0.0043476 14.8929 -2.30486
                    CHANNELS 3 Zrotation Xrotation Yrotation
                    JOINT head_JNT
                    {
                        OFFSET 0.00232523 9.1392 0.0646695
                        CHANNELS 3 Zrotation Xrotation Yrotation
                        End Site
                        {
                            OFFSET 0 0 0
                        }
                    }
                }
                JOINT l_shoulder
                {
                    OFFSET 3.67288 11.81 0.717765
                    CHANNELS 3 Zrotation Xrotation Yrotation
                    JOINT l_arm
                    {
                        OFFSET 13.2669 -1.17472 -7.56563
                        CHANNELS 3 Zrotation Xrotation Yrotation
                        JOINT l_forearm
                        {
                            OFFSET 29.4417 -0.00754595 0.00679344
                            CHANNELS 3 Zrotation Xrotation Yrotation
                            JOINT l_hand
                            {
                                OFFSET 26.1766 -0.00669956 0.00605285
                                CHANNELS 3 Zrotation Xrotation Yrotation
                                JOINT l_handThumb1
                                {
                                    OFFSET 4.6199 -2.10845 2.63465
                                    CHANNELS 3 Zrotation Xrotation Yrotation
                                    JOINT l_handThumb2
                                    {
                                        OFFSET 2.67276 -1.18767 2.35514
                                        CHANNELS 3 Zrotation Xrotation Yrotation
                                        JOINT l_handThumb3
                                        {
                                            OFFSET 2.97689 -2.05945 1.56059
                                            CHANNELS 3 Zrotation Xrotation Yrotation
                                            End Site
                                            {
                                                OFFSET 0 0 0
                                            }
                                        }
                                    }
                                }
                                JOINT l_handIndex1
                                {
                                    OFFSET 11.701 -1.51974 2.16506
                                    CHANNELS 3 Zrotation Xrotation Yrotation
                                    JOINT l_handIndex2
                                    {
                                        OFFSET 3.74603 -1.80552 -0.133665
                                        CHANNELS 3 Zrotation Xrotation Yrotation
                                        JOINT l_handIndex3
                                        {
                                            OFFSET 2.60652 -1.99621 -0.259069
                                            CHANNELS 3 Zrotation Xrotation Yrotation
                                            End Site
                                            {
                                                OFFSET 0 0 0
                                            }
                                        }
                                    }
                                }
                                JOINT l_handMiddle1
                                {
                                    OFFSET 11.8815 -1.2975 -0.45275
                                    CHANNELS 3 Zrotation Xrotation Yrotation
                                    JOINT l_handMiddle2
                                    {
                                        OFFSET 4.11872 -1.77224 -0.415168
                                        CHANNELS 3 Zrotation Xrotation Yrotation
                                        JOINT l_handMiddle3
                                        {
                                            OFFSET 2.87592 -2.05374 -0.220393
                                            CHANNELS 3 Zrotation Xrotation Yrotation
                                            End Site
                                            {
                                                OFFSET 0 0 0
                                            }
                                        }
                                    }
                                }
                                JOINT l_handRing1
                                {
                                    OFFSET 11.1483 -1.88248 -2.63091
                                    CHANNELS 3 Zrotation Xrotation Yrotation
                                    JOINT l_handRing2
                                    {
                                        OFFSET 3.87625 -1.72722 -0.687782
                                        CHANNELS 3 Zrotation Xrotation Yrotation
                                        JOINT l_handRing3
                                        {
                                            OFFSET 2.66625 -2.03094 -0.385118
                                            CHANNELS 3 Zrotation Xrotation Yrotation
                                            End Site
                                            {
                                                OFFSET 0 0 0
                                            }
                                        }
                                    }
                                }
                                JOINT l_handPinky1
                                {
                                    OFFSET 9.83148 -2.51061 -4.33061
                                    CHANNELS 3 Zrotation Xrotation Yrotation
                                    JOINT l_handPinky2
                                    {
                                        OFFSET 3.07645 -1.21475 -1.03341
                                        CHANNELS 3 Zrotation Xrotation Yrotation
                                        JOINT l_handPinky3
                                        {
                                            OFFSET 2.36694 -1.51944 -0.694968
                                            CHANNELS 3 Zrotation Xrotation Yrotation
                                            End Site
                                            {
                                                OFFSET 0 0 0
                                            }
                                        }
                                    }
                                }
                            }
                        }
                    }
                }
                JOINT r_shoulder
                {
                    OFFSET -3.66718 11.812 0.71607
                    CHANNELS 3 Zrotation Xrotation Yrotation
                    JOINT r_arm
                    {
                        OFFSET -13.2639 -1.16794 -7.57171
                        CHANNELS 3 Zrotation Xrotation Yrotation
                        JOINT r_forearm
                        {
                            OFFSET -29.4418 0.00754595 -0.00678822
                            CHANNELS 3 Zrotation Xrotation Yrotation
                            JOINT r_hand
                            {
                                OFFSET -26.1767 0.00669956 -0.0060305
                                CHANNELS 3 Zrotation Xrotation Yrotation
                                JOINT r_handThumb1
                                {
                                    OFFSET -4.62228 -2.10619 2.63254
                                    CHANNELS 3 Zrotation Xrotation Yrotation
                                    JOINT r_handThumb2
                                    {
                                        OFFSET -2.6743 -1.18634 2.35392
                                        CHANNELS 3 Zrotation Xrotation Yrotation
                                        JOINT r_handThumb3
                                        {
                                            OFFSET -2.97864 -2.05786 1.55921
                                            CHANNELS 3 Zrotation Xrotation Yrotation
                                            End Site
                                            {
                                                OFFSET 0 0 0
                                            }
                                        }
                                    }
                                }
                                JOINT r_handIndex1
                                {
                                    OFFSET -11.7205 -1.5767 2.17915
                                    CHANNELS 3 Zrotation Xrotation Yrotation
                                    JOINT r_handIndex2
                                    {
                                        OFFSET -3.74622 -1.8055 -0.133739
                                        CHANNELS 3 Zrotation Xrotation Yrotation
                                        JOINT r_handIndex3
                                        {
                                            OFFSET -2.6066 -1.99612 -0.259058
                                            CHANNELS 3 Zrotation Xrotation Yrotation
                                            End Site
                                            {
                                                OFFSET 0 0 0
                                            }
                                        }
                                    }
                                }
                                JOINT r_handMiddle1
                                {
                                    OFFSET -11.8818 -1.29145 -0.458179
                                    CHANNELS 3 Zrotation Xrotation Yrotation
                                    JOINT r_handMiddle2
                                    {
                                        OFFSET -4.11954 -1.77027 -0.417371
                                        CHANNELS 3 Zrotation Xrotation Yrotation
                                        JOINT r_handMiddle3
                                        {
                                            OFFSET -2.87693 -2.05227 -0.222373
                                            CHANNELS 3 Zrotation Xrotation Yrotation
                                            End Site
                                            {
                                                OFFSET 0 0 0
                                            }
                                        }
                                    }
                                }
                                JOINT r_handRing1
                                {
                                    OFFSET -11.1668 -1.9393 -2.61672
                                    CHANNELS 3 Zrotation Xrotation Yrotation
                                    JOINT r_handRing2
                                    {
                                        OFFSET -3.87599 -1.72703 -0.687786
                                        CHANNELS 3 Zrotation Xrotation Yrotation
                                        JOINT r_handRing3
                                        {
                                            OFFSET -2.66626 -2.03099 -0.385113
                                            CHANNELS 3 Zrotation Xrotation Yrotation
                                            End Site
                                            {
                                                OFFSET 0 0 0
                                            }
                                        }
                                    }
                                }
                                JOINT r_handPinky1
                                {
                                    OFFSET -9.84935 -2.56708 -4.31608
                                    CHANNELS 3 Zrotation Xrotation Yrotation
                                    JOINT r_handPinky2
                                    {
                                        OFFSET -3.07649 -1.21487 -1.03342
                                        CHANNELS 3 Zrotation Xrotation Yrotation
                                        JOINT r_handPinky3
                                        {
                                            OFFSET -2.36686 -1.51908 -0.695062
                                            CHANNELS 3 Zrotation Xrotation Yrotation
                                            End Site
                                            {
                                                OFFSET 0 0 0
                                            }
                                        }
                                    }
                                }
                            }
                        }
                    }
                }
            }
        }
    }
    JOINT l_upleg
    {
        OFFSET 8.73919 -0.000184774 -5.00586e-06
        CHANNELS 3 Zrotation Xrotation Yrotation
        JOINT l_leg
        {
            OFFSET 5.05774 -40.9824 -1.23411
            CHANNELS 3 Zrotation Xrotation Yrotation
            JOINT l_foot
            {
                OFFSET 2.77379 -38.429 -6.08625
                CHANNELS 3 Zrotation Xrotation Yrotation
                JOINT l_toebase
                {
                    OFFSET 0.807787 -13.0672 15.9427
                    CHANNELS 3 Zrotation Xrotation Yrotation
                    End Site
                    {
                        OFFSET 0 0 0
                    }
                }
            }
        }
    }
    JOINT r_upleg
    {
        OFFSET -8.7392 0 0
        CHANNELS 3 Zrotation Xrotation Yrotation
        JOINT r_leg
        {
            OFFSET -5.05777 -40.9826 -1.23412
            CHANNELS 3 Zrotation Xrotation Yrotation
            JOINT r_foot
            {
                OFFSET -2.7738 -38.4291 -6.08627
                CHANNELS 3 Zrotation Xrotation Yrotation
                JOINT r_toebase
                {
                    OFFSET -0.807783 -13.0671 15.9426
                    CHANNELS 3 Zrotation Xrotation Yrotation
                    End Site
                    {
                        OFFSET 0 0 0
                    }
                }
            }
        }
    }
}
MOTION
Frames: 8
Frame Time: 0.020000
-2.1493 87.9848 -0.208029 -8.24577 5.72661 -52.3982 -0.191107 -0.171447 -8.35675 9.87176e-07 -8.53774e-07 0.0395647 -0.0674443 0.0677654 -8.14176 10.5514 8.51771 -15.1725 -6.98018 20.4651 0.125115 1.00052e-06 -4.26887e-07 0.0395647 -49.3123 18.5384 -86.5408 -8.01615e-06 -6.38022e-06 -102.966 0.118346 -0.137134 -0.816617 4.10661 20.7048 -22.2077 -0 0 0 -4.20482 -0.0154225 0.420579 -6.61374 1.97893 0.125115 -8.50558 2.54065 0.189746 -5.66832 1.69723 0.0791294 -7.73692 1.54231 0.111906 -9.94903 1.97903 0.172458 -6.63122 1.32305 0.068528 -8.83091 -0.87953 0.068528 -11.3546 -1.1279 0.118694 -7.56919 -0.754676 0.0395647 -9.67245 -1.92459 -0.163129 -12.4391 -2.46679 -0.268341 -8.28985 -1.65173 0.118694 1.00052e-06 -4.26887e-07 0.0395647 51.3545 -17.074 74.0676 -3.41132e-06 7.73468e-06 109.309 0.0055371 0.0234916 -0.582825 -4.10661 20.7048 22.2077 -0 0 0 3.25953 0.00926921 0.326259 5.12605 1.5354 0.0559529 6.59167 1.97236 0.118694 4.39348 1.31652 0.0395647 5.99696 1.19703 0.0559529 7.71111 1.5372 0.104678 5.14005 1.02652 0.0395647 6.84537 -0.682877 0.0395647 8.80146 -0.87662 0.068528 5.86738 -0.585693 0.0559529 7.49681 -1.49475 0.104678 9.64018 -1.91823 0.163129 6.42545 -1.28218 0.068528 6.86267 -2.81548 13.4887 -5.58499 43.8069 4.51119 0.0552925 -7.48882 -1.35679 -0.251613 -33.4993 -0.91085 -4.64219 -16.9461 7.76776 4.06027 -7.27906 0.118694 -10.1198 8.94673 2.30873 2.13443e-06 0.000131481 0.0395647 
-2.54457 87.1794 0.0172347 -8.04092 5.67503 -51.8191 -0.16323 -0.196785 -8.45748 -8.00413e-08 -2.39939e-15 0 -0.0537913 0.0602168 -7.9661 9.93962 9.02469 -14.682 -6.07866 20.6845 0.0791294 -1.14726e-06 4.26887e-07 0 -49.9245 18.461 -86.1352 5.36676e-06 4.22485e-06 -103.579 0.14348 -0.174583 -0.871341 4.10661 20.7048 -22.2077 -0 0 0 -4.19569 -0.0153556 0.418713 -6.59936 1.97465 0.111906 -8.48708 2.53517 0.193827 -5.656 1.69355 0.0791294 -7.7201 1.53898 0.104678 -9.9274 1.97478 0.167859 -6.61681 1.32019 0.068528 -8.81172 -0.877634 0.068528 -11.3299 -1.12548 0.111906 -7.55275 -0.753046 0 -9.65143 -1.92045 -0.163129 -12.412 -2.46151 -0.268341 -8.27183 -1.64817 0.111906 -1.14726e-06 4.26887e-07 0 44.3676 -18.2344 73.8075 -4.76324e-06 5.04349e-06 106.883 0.00503501 0.0264559 -0.571981 -4.10661 20.7048 22.2077 -0 0 0 3.53224 0.0108847 0.356082 5.55517 1.66347 0.0884693 7.14367 2.13656 -0.125115 4.76122 1.42643 0.0559529 6.49888 1.29677 0.068528 8.35663 1.66494 -0.125115 5.57021 1.11215 0.0559529 7.41817 -0.739705 0.0559529 9.53799 -0.949313 0.0791294 6.35833 -0.634503 0 8.12437 -1.619 0.111906 10.4474 -2.07702 0.193827 6.96326 -1.38895 0.0791294 7.04844 -3.77003 13.3613 -5.82257 46.1855 4.84699 0.0329634 -8.5262 -1.40831 -0.264059 -34.0693 -0.938778 -5.17866 -16.927 7.20065 4.06027 -7.27906 -0.125115 -9.5178 9.3613 2.31077 8.50358e-07 -0.0621718 0 
-2.84089 86.3625 0.40134 -7.8226 5.65555 -51.1347 -0.132136 -0.224935 -8.46747 1.26974e-14 4.26887e-07 0 -0.0328326 0.0457289 -7.75838 9.25532 9.39089 -13.9895 -4.92277 21.0443 0.0395647 2.80144e-07 -4.26887e-07 0.0395647 -49.9977 18.3589 -85.7571 2.10343e-06 -2.69044e-06 -103.962 0.15232 -0.269936 -0.934616 4.10661 20.7048 -22.2077 -0 0 0 -4.24196 -0.015696 0.424284 -6.67221 1.99633 0.131221 -8.58081 2.56292 0.189746 -5.71842 1.71217 0.0884693 -7.80529 1.55585 0.104678 -10.037 1.99634 0.181308 -6.68981 1.33468 0.0791294 -8.90892 -0.887236 0.068528 -11.4549 -1.13773 0.111906 -7.63606 -0.761302 0.0559529 -9.75795 -1.94143 -0.167859 -12.5491 -2.48823 -0.271242 -8.36311 -1.66622 -0.125115 2.80144e-07 -4.26887e-07 0.0395647 30.9651 -20.3268 72.8923 -9.79702e-07 2.87974e-06 102.866 -0.00284115 0.0281606 -0.527859 -4.10661 20.7048 22.2077 -0 0 0 4.09132 0.0146015 0.407344 6.43508 1.92574 0.104678 8.2757 2.47255 -0.176939 5.51523 1.65156 0.068528 7.52797 1.50092 0.104678 9.68027 1.92613 -0.167859 6.45216 1.28749 0.068528 8.5925 -0.855969 0.0559529 11.048 -1.09783 0.104678 7.36485 -0.734419 0.0559529 9.41117 -1.87312 0.148037 12.1029 -2.40121 0.253338 8.06596 -1.60745 0.118694 7.07249 -4.7649 12.9563 -6.08828 48.5309 5.20828 -0.0709691 -9.41652 -1.50243 -0.25199 -34.7799 -0.875804 -5.87863 -16.9319 6.32893 4.06027 -7.27907 0.111906 -8.79862 10.0033 2.31144 2.15531e-07 -0.0722873 0.0395647 
-2.98199 85.5663 0.884835 -7.61327 5.67607 -50.3121 -0.113963 -0.233587 -8.38875 8.00413e-07 8.53774e-07 0 -0.0106771 0.0294627 -7.51165 8.54619 9.40951 -13.1513 -3.65189 21.5301 0 8.53774e-07 8.53774e-07 0 -49.5087 18.6446 -85.5108 -3.80392e-06 -1.1711e-05 -103.369 0.131281 -0.321691 -0.911721 4.10661 20.7048 -22.2077 -0 0 0 -4.39016 -0.0168113 0.438794 -6.9055 2.06574 0.118694 -8.88101 2.65175 0.209357 -5.91832 1.77178 0.0884693 -8.07811 1.60985 0.111906 -10.3879 2.06533 0.189746 -6.92361 1.38109 0.0969133 -9.22021 -0.917968 0.0559529 -11.8552 -1.17691 -0.125115 -7.90286 -0.787733 0.0395647 -10.0991 -2.00856 -0.181308 -12.988 -2.57369 -0.29342 -8.65545 -1.72399 -0.137056 8.53774e-07 8.53774e-07 0 12.2608 -22.5284 69.9772 -2.92415e-06 -8.09289e-07 99.4381 -0.0155705 0.0232124 -0.490985 -4.10661 20.7048 22.2077 -0 0 0 4.97544 0.0215897 0.495744 7.82711 2.33953 -0.167859 10.0671 3.00186 -0.268341 6.70796 2.00697 0.118694 9.15577 1.82276 -0.137056 11.7743 2.33702 -0.240663 7.8471 1.56413 0.104678 10.4497 -1.03907 0.111906 13.4363 -1.33111 0.158259 8.95663 -0.891948 0.0791294 11.4469 -2.27298 0.2307 14.7224 -2.90969 0.375344 9.81024 -1.95172 0.167859 6.81701 -5.78958 11.958 -6.3733 50.7492 5.58198 -0.266541 -10.2389 -1.62987 -0.205164 -35.4676 -0.696609 -6.7423 -16.9709 5.11224 4.06027 -7.27906 -0.137056 -7.8188 10.8463 2.28179 -5.65689e-06 -0.0849027 0.0395647 
-2.9414 84.8345 1.36854 -7.42841 5.74555 -49.2772 -0.10811 -0.211378 -8.21694 1.01386e-06 -2.36057e-16 0 0.00663243 0.0170864 -7.21608 7.80542 8.97664 -12.2665 -2.3204 22.0679 0.111906 8.53774e-07 8.53774e-07 0 -49.1505 18.8397 -84.3201 4.79644e-06 -5.65608e-07 -103.451 0.115224 -0.24627 -0.817574 4.10661 20.7048 -22.2077 -0 0 0 -4.5939 -0.0184071 0.4597 -7.22628 2.16112 0.142652 -9.29381 2.77376 0.227282 -6.19318 1.85369 0.104678 -8.45323 1.68403 0.125115 -10.8705 2.16005 0.205584 -7.24507 1.44485 0.0969133 -9.6482 -0.960177 0.0791294 -12.4056 -1.2307 -0.137056 -8.26968 -0.824043 0.0559529 -10.5682 -2.10074 -0.193827 -13.5917 -2.69093 -0.318981 -9.05742 -1.80335 -0.142652 8.53774e-07 8.53774e-07 0 -5.76513 -23.5452 65.2165 4.94774e-06 3.03855e-06 97.316 -0.0181869 0.0178661 -0.466461 -4.10661 20.7048 22.2077 -0 0 0 5.84992 0.0298388 0.584166 9.20479 2.74746 -0.216705 11.8406 3.52251 -0.364768 7.88821 2.35766 -0.163129 10.7664 2.13964 -0.209357 13.8467 2.74037 -0.333378 9.22721 1.83685 -0.148037 12.2869 -1.21911 0.125115 15.799 -1.55957 0.216705 10.5312 -1.04708 0.0884693 13.4615 -2.66568 0.316518 17.3157 -3.40665 0.520393 11.5362 -2.29047 0.234068 6.41859 -6.89522 10.6634 -6.67388 52.8186 5.96511 -0.405506 -10.9891 -1.73951 -0.145445 -36.0473 -0.482949 -7.74506 -17.066 3.46131 4.06027 -7.27906 -0.137056 -6.51294 11.9795 2.21354 -1.18003e-06 -0.103862 0 
-2.73169 84.218 1.75212 -7.27382 5.87293 -47.9286 -0.129998 -0.174864 -8.00896 -3.20165e-07 1.28066e-06 0.0395647 0.0112814 0.00668477 -6.91231 7.04979 8.1483 -11.3941 -0.987138 22.5322 -0.240663 8.53774e-07 4.26887e-07 0 -48.9013 19.0665 -83.5078 4.23405e-06 -5.35951e-06 -103.382 0.099683 -0.190665 -0.716569 4.10661 20.7048 -22.2077 -0 0 0 -4.75579 -0.0197266 0.474777 -7.4812 2.23685 0.148037 -9.62187 2.87061 0.240663 -6.41159 1.91875 0.104678 -8.75131 1.74293 0.131221 -11.2539 2.23521 0.220287 -7.50051 1.49548 0.104678 -9.98829 -0.993677 0.0884693 -12.8429 -1.27335 -0.148037 -8.56116 -0.852871 0.0791294 -10.941 -2.17389 -0.209357 -14.0714 -2.78389 -0.344917 -9.37683 -1.86635 -0.153233 8.53774e-07 4.26887e-07 0 -18.1456 -21.8872 61.6579 5.88087e-06 -1.11149e-06 96.3167 -0.0267932 0.0151309 -0.420579 -4.10661 20.7048 22.2077 -0 0 0 6.65002 0.0385496 0.663226 10.4661 3.11932 -0.285305 13.4651 3.99596 -0.471468 8.96861 2.67766 -0.213062 12.2407 2.4281 -0.262442 15.7441 3.1063 -0.4316 10.4903 2.08544 -0.185575 13.9681 -1.38274 0.163129 17.9612 -1.76629 0.279765 11.972 -1.18834 0.125115 15.3059 -3.0221 0.405418 19.6908 -3.85527 0.66793 13.1162 -2.5986 0.301316 5.92516 -8.11381 9.01196 -6.97771 54.6796 6.34129 -0.468579 -11.6461 -1.81956 -0.0837263 -36.4404 -0.276953 -8.85546 -17.215 1.23478 4.06028 -7.27905 -0.148037 -4.90536 13.4608 2.09135 -4.276e-06 -0.126419 0.0395647 
-2.39551 83.7813 1.97904 -7.14774 6.06784 -46.1734 -0.175769 -0.147437 -7.82653 8.53774e-07 -4.26887e-07 0 0.00924477 -0.00366823 -6.64733 6.29563 7.09869 -10.6158 0.278461 22.7864 -0.356082 5.33609e-07 1.28066e-06 0 -48.459 19.8865 -83.7657 -2.64998e-06 -2.15417e-06 -101.785 0.089157 -0.15276 -0.665588 4.10661 20.7048 -22.2077 -0 0 0 -4.92443 -0.0211495 0.490985 -7.74677 2.3157 0.158259 -9.96367 2.97139 0.262442 -6.63913 1.98649 0.118694 -9.06184 1.80423 0.137056 -11.6534 2.31339 0.237388 -7.76661 1.54819 0.0969133 -10.3425 -1.02854 0.0969133 -13.2985 -1.31771 -0.158259 -8.86479 -0.882877 0.068528 -11.3294 -2.24999 -0.223812 -14.5712 -2.8805 -0.369035 -9.70959 -1.9319 -0.163129 5.33609e-07 1.28066e-06 0 -22.294 -18.8512 61.5309 5.58393e-06 -1.47635e-06 95.3565 -0.0363664 0.0104334 -0.407344 -4.10661 20.7048 22.2077 -0 0 0 7.31751 0.0466661 0.729538 11.5191 3.4284 -0.347179 14.8218 4.3885 -0.571981 9.87039 2.9439 -0.253338 13.4711 2.66753 -0.318981 17.328 3.40899 -0.521894 11.5444 2.29207 -0.2307 15.3708 -1.51836 0.209357 19.7655 -1.93684 0.335718 13.1742 -1.30561 0.153233 16.8456 -3.31708 0.492577 21.6742 -4.22452 0.808904 14.4348 -2.85416 0.362616 5.36012 -9.42463 6.90959 -7.25462 56.2072 6.67812 -0.484906 -12.1352 -1.86796 -0.0275865 -36.6116 0.068528 -10.0513 -17.3788 -1.7467 4.06026 -7.27905 -0.125115 -3.08002 15.2961 1.91513 5.3596e-06 -0.148847 0 
-1.99076 83.5926 2.07253 -7.04604 6.33914 -43.9728 -0.223571 -0.137597 -7.70875 -1.06722e-07 -8.53774e-07 0.0395647 0.00707657 -0.0140235 -6.45062 5.58951 6.0712 -10.0256 1.39352 22.7204 -0.541039 -4.96962e-17 -4.26887e-07 0 -47.8152 21.0609 -84.3614 4.02859e-06 -1.00199e-05 -99.3242 0.088621 -0.131012 -0.64772 4.10661 20.7048 -22.2077 -0 0 0 -5.14082 -0.0230478 0.511289 -8.08758 2.41679 0.172458 -10.4023 3.10056 0.279765 -6.93112 2.07336 0.118694 -9.46032 1.8828 0.158259 -12.1661 2.41355 0.253338 -8.10807 1.61578 0.118694 -10.7971 -1.07321 0.0884693 -13.8831 -1.3745 -0.167859 -9.2544 -0.921342 0.0559529 -11.8278 -2.34748 -0.243893 -15.2127 -3.00416 -0.399584 -10.1366 -2.01593 -0.176939 -4.96962e-17 -4.26887e-07 0 -18.9406 -15.3637 63.8313 -4.09736e-06 -4.35077e-06 93.4361 -0.0364338 0.00624391 -0.413068 -4.10661 20.7048 22.2077 -0 0 0 7.77758 0.0527096 0.774298 12.2453 3.64077 -0.387653 15.7577 4.65765 -0.644067 10.4922 3.12699 -0.288035 14.3194 2.83186 -0.358274 18.4204 3.61613 -0.58684 12.2711 2.43404 -0.265408 16.3378 -1.6113 0.2307 21.0093 -2.05328 0.383594 14.0028 -1.38611 0.167859 17.9074 -3.51902 0.555317 23.0424 -4.47612 0.913424 15.3441 -3.02944 0.411168 4.73362 -10.7431 4.34193 -7.45579 57.2302 6.91865 -0.481813 -12.3187 -1.9053 0.0192472 -36.607 0.068528 -11.3182 -17.477 -5.59305 4.06026 -7.27907 0.118694 -1.16034 17.4294 1.68605 -9.54466e-07 -0.166093 0.0395647 
